<svg width="35" height="32" viewBox="0 0 35 32" fill="none" xmlns="http://www.w3.org/2000/svg">
<path d="M17.4815 0C11.338 0 6.21411 4.52938 6.21411 10.3125C6.21411 12.5126 6.93645 14.4745 8.32275 16.3129L16.6192 28.1616C17.0217 28.7376 17.9421 28.7365 18.3437 28.1616L26.6762 16.2726C28.0326 14.5175 28.7488 12.4567 28.7488 10.3125C28.7488 4.62619 23.6943 0 17.4815 0ZM17.4815 15C14.6576 15 12.3599 12.8971 12.3599 10.3125C12.3599 7.72794 14.6576 5.625 17.4815 5.625C20.3053 5.625 22.603 7.72794 22.603 10.3125C22.603 12.8971 20.3053 15 17.4815 15Z" fill="#CD06FF"/>
<path d="M25.4891 21.5433L20.3313 28.9238C18.9962 30.8289 15.9593 30.8226 14.6306 28.9256L9.46443 21.5453C4.91897 22.5071 2.11688 24.2692 2.11688 26.3749C2.11688 30.0288 10.0333 31.9999 17.4815 31.9999C24.9297 31.9999 32.846 30.0288 32.846 26.3749C32.846 24.2677 30.0401 22.5047 25.4891 21.5433Z" fill="#CD06FF"/>
</svg>
